<svg xmlns="http://www.w3.org/2000/svg" version="1.1" xmlns:xlink="http://www.w3.org/1999/xlink" width="512" height="512" x="0" y="0" viewBox="0 0 64 64" style="enable-background:new 0 0 512 512" xml:space="preserve" class=""><g><path d="M17 36h-5v-6h2v3a1 1 0 0 0 2 0v-3h1a1 1 0 0 0 .937-1.352l-3-8A1 1 0 0 0 14 20H8a1 1 0 0 0-.937.648l-3 8A1 1 0 0 0 5 30h5v6H5a3.003 3.003 0 0 0-3 3v20a3.003 3.003 0 0 0 3 3h12a3.003 3.003 0 0 0 3-3V39a3.003 3.003 0 0 0-3-3ZM8.693 22h4.614l2.25 6H6.443ZM5 38h12a1 1 0 0 1 1 1v9H4v-9a1 1 0 0 1 1-1Zm12 22H5a1 1 0 0 1-1-1v-9h14v9a1 1 0 0 1-1 1ZM8 43a1 1 0 0 1 1-1h4a1 1 0 0 1 0 2H9a1 1 0 0 1-1-1Zm6 12a1 1 0 0 1-1 1H9a1 1 0 0 1 0-2h4a1 1 0 0 1 1 1Zm46-11v-1a4.979 4.979 0 0 0-2-3.974V26a2.003 2.003 0 0 0-2-2h-2a2.003 2.003 0 0 0-2 2v.25A22.037 22.037 0 0 0 42 24a22.037 22.037 0 0 0-10 2.25V26a2.003 2.003 0 0 0-2-2h-2a2.003 2.003 0 0 0-2 2v13.026A4.979 4.979 0 0 0 24 43v1a2.003 2.003 0 0 0-2 2v15a1 1 0 0 0 1 1h4a1 1 0 0 0 1-1v-3h28v3a1 1 0 0 0 1 1h4a1 1 0 0 0 1-1V46a2.003 2.003 0 0 0-2-2Zm-4-18v12.101A5 5 0 0 0 55 38h-1V26Zm-14 0a19.487 19.487 0 0 1 10 2.54V38h-3v-3a3.003 3.003 0 0 0-3-3h-8a3.003 3.003 0 0 0-3 3v3h-3v-9.46A19.487 19.487 0 0 1 42 26Zm5 12H37v-3a1 1 0 0 1 1-1h8a1 1 0 0 1 1 1ZM28 26h2v12h-1a5 5 0 0 0-1 .101Zm-2 34h-2V46h2Zm0-16v-1a3.003 3.003 0 0 1 3-3h26a3.003 3.003 0 0 1 3 3v1a2.003 2.003 0 0 0-2 2v2H28v-2a2.003 2.003 0 0 0-2-2Zm2 12v-6h28v6Zm32 4h-2V46h2ZM31 20h22a1 1 0 0 0 1-1V3a1 1 0 0 0-1-1H31a1 1 0 0 0-1 1v16a1 1 0 0 0 1 1Zm1-8.96A18.99 18.99 0 0 1 44.97 18H32ZM47.506 18a23.992 23.992 0 0 0-1.438-1.802A11.988 11.988 0 0 1 52 14.049V18ZM52 4v8.039a13.984 13.984 0 0 0-7.344 2.699A20.164 20.164 0 0 0 32 9.034V4ZM42 8a3.004 3.004 0 0 1 1.769-2.732 1 1 0 1 1 .822 1.824.997.997 0 1 0 1.317 1.317 1 1 0 1 1 1.824.822A2.998 2.998 0 0 1 42 8Z" fill="#1f2125" opacity="1" data-original="#000000" class=""></path></g></svg>