<svg xmlns="http://www.w3.org/2000/svg" version="1.1" xmlns:xlink="http://www.w3.org/1999/xlink" width="512" height="512" x="0" y="0" viewBox="0 0 512.522 512.522" style="enable-background:new 0 0 512 512" xml:space="preserve" class=""><g><path d="m407.664 211.714-13.941-85.31a7.492 7.492 0 0 0-8.611-6.192 7.498 7.498 0 0 0-6.191 8.611l12.437 76.102c-63.451-12.539-129.991-15.76-197.809-9.548a7.5 7.5 0 0 0 1.367 14.938c66.933-6.13 132.56-2.896 195.06 9.616 10.575 2.117 18.251 11.527 18.251 22.375v23.666c0 12.592-10.244 22.836-22.836 22.836H127.132c-12.592 0-22.836-10.244-22.836-22.836v-23.198c0-11.007 7.847-20.452 18.656-22.458a811.362 811.362 0 0 1 40.312-6.432c4.105-.549 6.988-4.322 6.439-8.428s-4.324-6.991-8.428-6.439a825.698 825.698 0 0 0-41.06 6.551h-.001l21.091-129.681C147.044 40.606 177.151 15 212.894 15h85.787c35.716 0 65.819 25.583 71.579 60.832l3.467 21.211a7.498 7.498 0 0 0 8.611 6.192 7.499 7.499 0 0 0 6.191-8.612l-3.467-21.21a87.615 87.615 0 0 0-29.7-52.58A87.608 87.608 0 0 0 298.681 0h-85.787c-20.757 0-40.896 7.406-56.707 20.854s-26.354 32.137-29.686 52.624l-22.686 139.487c-8.917 6.986-14.519 17.84-14.519 29.808v23.198c0 20.863 16.973 37.836 37.836 37.836h5.669l-29.245 192.741c-.608 4.006.558 8.066 3.199 11.139s6.481 4.835 10.533 4.835h7.449c6.18 0 11.525-3.976 13.303-9.894l46.575-155.031 17.1-10.594h109.09l17.1 10.594 7.559 25.161a7.502 7.502 0 0 0 9.341 5.025 7.498 7.498 0 0 0 5.024-9.34l-19.418-64.636h34.137l29.393 193.715h-5.333l-29.582-98.468a7.499 7.499 0 0 0-9.341-5.025 7.499 7.499 0 0 0-5.024 9.341l29.819 99.259c1.777 5.917 7.123 9.894 13.303 9.894h7.449c4.052 0 7.892-1.762 10.533-4.835s3.808-7.133 3.199-11.139l-29.245-192.741h5.669c20.863 0 37.836-16.973 37.836-37.836v-23.666c.002-12.385-6.051-23.639-15.56-30.592zM123.912 497.522h-5.333l29.393-193.715h34.137zm197.481-171.606-2.844-1.762a14.345 14.345 0 0 0-7.56-2.152H201.532c-2.673 0-5.286.744-7.562 2.153l-2.842 1.76 6.642-22.109h116.979z" fill="#1f2125" opacity="1" data-original="#000000"></path></g></svg>