<svg xmlns="http://www.w3.org/2000/svg" version="1.1" xmlns:xlink="http://www.w3.org/1999/xlink" width="512" height="512" x="0" y="0" viewBox="0 0 64 64" style="enable-background:new 0 0 512 512" xml:space="preserve" class=""><g><path d="M30.208 14.609A2.99 2.99 0 0 0 32 20h7.532l5.217 6.257a18.447 18.447 0 0 1 2.116 3.168 1 1 0 1 0 1.77-.931 20.376 20.376 0 0 0-2.348-3.515l-4.592-5.508A2.97 2.97 0 0 0 42.3 15.1l.994-.994a9.567 9.567 0 0 0 2.5-9.04A2.937 2.937 0 0 0 40.873 3.7l-.21.209a.939.939 0 0 1-1.326 0l-1.05-1.049a2.938 2.938 0 0 0-4.428.316l-.318.424a.928.928 0 0 1-.685.373.95.95 0 0 1-.729-.272A2.937 2.937 0 0 0 27.2 5.065a9.567 9.567 0 0 0 2.5 9.04ZM31 17a1 1 0 0 1 1-1h8a1 1 0 0 1 0 2h-8a1 1 0 0 1-1-1ZM29.14 5.551a.938.938 0 0 1 1.573-.436 2.938 2.938 0 0 0 4.428-.315l.318-.424a.939.939 0 0 1 1.414-.1l1.05 1.051a2.941 2.941 0 0 0 4.154 0l.21-.21a.938.938 0 0 1 1.573.436 7.559 7.559 0 0 1-1.979 7.141l-1.361 1.361A2.979 2.979 0 0 0 40 14h-7.573l-1.309-1.309a7.559 7.559 0 0 1-1.978-7.14ZM36 30a1.5 1.5 0 0 1 1.5 1.5 1 1 0 0 0 2 0 3.494 3.494 0 0 0-2.5-3.337V27a1 1 0 0 0-2 0v1.163A3.49 3.49 0 0 0 36 35a1.5 1.5 0 1 1-1.5 1.5 1 1 0 0 0-2 0 3.494 3.494 0 0 0 2.5 3.337V41a1 1 0 0 0 2 0v-1.163A3.49 3.49 0 0 0 36 33a1.5 1.5 0 0 1 0-3ZM13 55a3 3 0 1 0-3 3 3 3 0 0 0 3-3Zm-4 0a1 1 0 1 1 1 1 1 1 0 0 1-1-1Z" fill="#1f2125" opacity="1" data-original="#000000" class=""></path><path d="M43.406 47.511a1.029 1.029 0 0 1-.763.259l-2.028-.176a4.009 4.009 0 0 0-3.3-3.842l-9.849-1.736a.987.987 0 0 0-.178-.016h-3.632A12.872 12.872 0 0 1 23 38a18.3 18.3 0 0 1 .2-2.582A13 13 0 1 0 5.19 18.593a1 1 0 0 0 1.818.832 10.947 10.947 0 1 1-.96 3.539 1 1 0 1 0-1.991-.187A12.978 12.978 0 0 0 21.072 36.33 19.99 19.99 0 0 0 21 38a14.716 14.716 0 0 0 .152 2H17v-1a1 1 0 0 0-1-1H3a1 1 0 0 0 0 2h12v6a1 1 0 0 0 2 0v-4h4.247v16H17v-8a1 1 0 0 0-2 0v10H3a1 1 0 0 0 0 2h13a1 1 0 0 0 1-1v-1h5.247a1 1 0 0 0 1-1V44H27.2l9.763 1.721a2 2 0 0 1 1.6 2.373l-.044.16a1.994 1.994 0 0 1-2.255 1.407l-6.848-1.208a1 1 0 0 0-.348 1.97l6.848 1.208a3.979 3.979 0 0 0 4.218-2.071l2.332.2a2.984 2.984 0 0 0 2.287-.777l5.926-5.433a2 2 0 0 1 2.9.205 2.119 2.119 0 0 1-.319 2.858l-8.8 8.07A4.987 4.987 0 0 1 41.08 56H26.246a1 1 0 0 0 0 2H41.08a6.981 6.981 0 0 0 4.729-1.84l8.8-8.069a4.09 4.09 0 0 0 .511-5.605 3.972 3.972 0 0 0-4.5-1.193A14.793 14.793 0 0 0 51 38a20.064 20.064 0 0 0-.8-5.609 1 1 0 1 0-1.92.559A18.1 18.1 0 0 1 49 38a12.8 12.8 0 0 1-1.187 5.393Z" fill="#1f2125" opacity="1" data-original="#000000" class=""></path><path d="M19.121 26.122a3 3 0 1 0 4.243 0 3 3 0 0 0-4.243 0Zm2.829 2.828a1 1 0 1 1 0-1.414 1 1 0 0 1 0 1.414ZM21.95 17.636 10.636 28.95a1 1 0 1 0 1.414 1.414L23.364 19.05a1 1 0 0 0-1.414-1.414ZM10.636 17.636a3 3 0 1 0 4.243 0 3 3 0 0 0-4.243 0Zm2.829 2.828a1 1 0 1 1 0-1.414 1 1 0 0 1 0 1.414ZM57 18a1 1 0 0 0-1 1v5h-4v-9a1 1 0 0 0-1-1h-1.3l4.3-3.683L58.3 14H57a1 1 0 0 0 0 2h4a1 1 0 0 0 .65-1.759l-7-6a1 1 0 0 0-1.3 0l-7 6A1 1 0 0 0 47 16h3v9a1 1 0 0 0 1 1h6a1 1 0 0 0 1-1v-6a1 1 0 0 0-1-1ZM57 28a1 1 0 0 0-1 1v10a1 1 0 0 0 2 0V29a1 1 0 0 0-1-1ZM61 35a1 1 0 0 0-1 1v12a1 1 0 0 0 2 0V36a1 1 0 0 0-1-1ZM54 32v-3a1 1 0 0 0-2 0v3a1 1 0 0 0 2 0Z" fill="#1f2125" opacity="1" data-original="#000000" class=""></path></g></svg>