<svg xmlns="http://www.w3.org/2000/svg" version="1.1" xmlns:xlink="http://www.w3.org/1999/xlink" width="512" height="512" x="0" y="0" viewBox="0 0 512 512" style="enable-background:new 0 0 512 512" xml:space="preserve" class=""><g><path d="M221 135.5h110c5.79 0 10.5-4.71 10.5-10.5V44c0-5.79-4.71-10.5-10.5-10.5H221c-5.79 0-10.5 4.71-10.5 10.5v81c0 5.79 4.71 10.5 10.5 10.5zm4.5-87h101v72h-101z" fill="#1f2125" opacity="1" data-original="#000000" class=""></path><path d="M306 58.5h-60c-5.79 0-10.5 4.71-10.5 10.5v31c0 5.79 4.71 10.5 10.5 10.5h60c5.79 0 10.5-4.71 10.5-10.5V69c0-5.79-4.71-10.5-10.5-10.5zm-4.5 37h-51v-22h51zM221 304.5h110c5.79 0 10.5-4.71 10.5-10.5V159c0-5.79-4.71-10.5-10.5-10.5H221c-5.79 0-10.5 4.71-10.5 10.5v135c0 5.79 4.71 10.5 10.5 10.5zm4.5-141h101v126h-101zM365 259.5h110c5.79 0 10.5-4.71 10.5-10.5v-67c0-4.143-3.357-7.5-7.5-7.5s-7.5 3.357-7.5 7.5v62.5h-101v-126h101V147c0 4.143 3.357 7.5 7.5 7.5s7.5-3.357 7.5-7.5v-33c0-5.79-4.71-10.5-10.5-10.5H365c-5.79 0-10.5 4.71-10.5 10.5v135c0 5.79 4.71 10.5 10.5 10.5z" fill="#1f2125" opacity="1" data-original="#000000" class=""></path><path d="M390 128.5c-5.79 0-10.5 4.71-10.5 10.5v85c0 5.79 4.71 10.5 10.5 10.5h60c5.79 0 10.5-4.71 10.5-10.5v-85c0-5.79-4.71-10.5-10.5-10.5zm48.296 15-16.584 22.865-18.824-22.865zM394.5 156.91l18.112 22.002-18.112 24.973zm51 62.59h-43.796l43.796-60.385zM499.5 431.5h-22.937l17.852-74.537a12.432 12.432 0 0 0-2.342-10.652 12.431 12.431 0 0 0-9.814-4.759h-1.541c8.884-12.224 12.195-27.667 8.841-42.758a10.602 10.602 0 0 0-8.021-8.022c-17.869-3.971-36.256 1.371-49.178 14.293a53.523 53.523 0 0 0-7.056 8.749 53.492 53.492 0 0 0-7.066-8.749c-12.921-12.92-31.302-18.264-49.177-14.293a10.608 10.608 0 0 0-8.022 8.022c-3.353 15.091-.042 30.534 8.842 42.758h-1.541a12.425 12.425 0 0 0-9.814 4.759 12.432 12.432 0 0 0-2.342 10.652l17.852 74.537h-182.64a50.44 50.44 0 0 0 5.574-15.481l.323-1.758c.673-3.661-.307-7.4-2.689-10.261a12.47 12.47 0 0 0-9.605-4.5h-8.522l20.342-84.93c.897-3.746.043-7.629-2.342-10.653s-5.962-4.759-9.814-4.759h-23.685a244.292 244.292 0 0 0 5.897-15.459c11.511-33.646 15.089-67.485 10.074-95.283a10.531 10.531 0 0 0-6.943-8.092 10.529 10.529 0 0 0-10.445 2.144c-7.05 6.348-13.749 13.833-19.977 22.243-2.262-29.393-9.292-56.343-20.379-77.405a10.491 10.491 0 0 0-9.305-5.627h-.001a10.492 10.492 0 0 0-9.305 5.626c-11.087 21.063-18.117 48.014-20.379 77.406-6.228-8.411-12.927-15.896-19.977-22.244a10.528 10.528 0 0 0-10.444-2.143 10.53 10.53 0 0 0-6.943 8.092c-5.015 27.798-1.438 61.637 10.074 95.283a244.292 244.292 0 0 0 5.897 15.459H35.136a12.427 12.427 0 0 0-9.813 4.758 12.428 12.428 0 0 0-2.343 10.653v.001l20.34 84.93h-8.521c-3.722 0-7.222 1.64-9.604 4.499a12.468 12.468 0 0 0-2.69 10.261l.323 1.759a50.432 50.432 0 0 0 5.575 15.481H12.5C5.607 431.5 0 437.107 0 444v22c0 6.893 5.607 12.5 12.5 12.5H375c4.143 0 7.5-3.357 7.5-7.5s-3.357-7.5-7.5-7.5H15v-17h482v17h-87c-4.143 0-7.5 3.357-7.5 7.5s3.357 7.5 7.5 7.5h89.5c6.893 0 12.5-5.607 12.5-12.5v-22c0-6.893-5.607-12.5-12.5-12.5zM163.394 199.648c2.438 23.483-1.34 51.804-10.711 79.195a221.72 221.72 0 0 1-8.096 20.314h-29.255a220.591 220.591 0 0 1 8.019-30.35c9.372-27.392 23.731-52.09 40.043-69.159zm-53.495-57.076c9.909 22.715 15.5 52.371 15.5 83.002 0 .474-.012.946-.015 1.419-5.915 10.779-11.126 22.49-15.481 34.855-4.355-12.368-9.574-24.075-15.49-34.855-.003-.474-.015-.945-.015-1.419.001-30.631 5.592-60.287 15.501-83.002zm-53.495 57.076c16.311 17.069 30.671 41.769 40.042 69.16a222.416 222.416 0 0 1 5.729 19.683 223.498 223.498 0 0 0-2.15 10.666H75.211a222.006 222.006 0 0 1-8.096-20.314c-9.371-27.393-13.15-55.71-10.711-79.195zM172.894 431.5H46.904a35.493 35.493 0 0 1-9.083-17H113c4.142 0 7.5-3.357 7.5-7.5s-3.358-7.5-7.5-7.5H58.745l-20.44-85.342h143.188l-20.44 85.342H148c-4.142 0-7.5 3.357-7.5 7.5s3.358 7.5 7.5 7.5h33.976a35.491 35.491 0 0 1-9.082 17zm270.073-115.828c8.591-8.593 20.552-12.516 32.472-10.78 1.735 11.92-2.188 23.881-10.779 32.472a38.464 38.464 0 0 1-4.97 4.188h-27.889c.262-9.634 4.161-18.876 11.166-25.88zm-67.809-10.78c11.918-1.734 23.881 2.188 32.473 10.78a38.045 38.045 0 0 1 10 17.547 53.124 53.124 0 0 0-.814 8.333H390.9a38.544 38.544 0 0 1-4.962-4.188c-8.592-8.593-12.516-20.555-10.78-32.472zM389.459 431.5l-17.95-74.948h107.58l-17.95 74.948z" fill="#1f2125" opacity="1" data-original="#000000" class=""></path><path d="M306 173.5h-60c-5.79 0-10.5 4.71-10.5 10.5v85c0 5.79 4.71 10.5 10.5 10.5h60c5.79 0 10.5-4.71 10.5-10.5v-85c0-5.79-4.71-10.5-10.5-10.5zm-4.5 91h-51V254h51zm0-25.5h-51v-50.5h51z" fill="#1f2125" opacity="1" data-original="#000000" class=""></path></g></svg>