<svg xmlns="http://www.w3.org/2000/svg" version="1.1" xmlns:xlink="http://www.w3.org/1999/xlink" width="512" height="512" x="0" y="0" viewBox="0 0 64 64" style="enable-background:new 0 0 512 512" xml:space="preserve" class=""><g><path d="M63 3.494H1a1 1 0 1 1 0-2h62a1 1 0 1 1 0 2zM63 7.494H1a1 1 0 1 1 0-2h62a1 1 0 1 1 0 2z" fill="#1f2125" opacity="1" data-original="#000000"></path><path d="M31.984 34.496a1 1 0 0 1-1-1V6.494a1 1 0 1 1 2 0v27.002a1 1 0 0 1-1 1zM13.003 22.484a1 1 0 0 1-1-1V6.494a1 1 0 1 1 2 0v14.99a1 1 0 0 1-1 1zM43.999 51.506H20a1 1 0 1 1 0-2h23.999a1 1 0 1 1 0 2z" fill="#1f2125" opacity="1" data-original="#000000"></path><path d="M32.001 55.508a4.995 4.995 0 0 1-4.99-4.99 1 1 0 1 1 2 0c0 1.648 1.342 2.99 2.99 2.99s2.99-1.342 2.99-2.99a1 1 0 1 1 2 0 4.995 4.995 0 0 1-4.99 4.99zM20 51.506a1 1 0 0 1-1-1v-5.004a1 1 0 1 1 2 0v5.004a1 1 0 0 1-1 1zM44 51.506a1 1 0 0 1-1-1V45.5a1 1 0 1 1 2 0v5.006a1 1 0 0 1-1 1zM32.001 62.506a1 1 0 0 1-1-1v-3a1 1 0 1 1 2 0v3a1 1 0 0 1-1 1zM39.061 59.619a.997.997 0 0 1-.707-.293l-2.121-2.121a.999.999 0 1 1 1.414-1.414l2.121 2.121a.999.999 0 0 1-.707 1.707zM24.94 59.559a.999.999 0 0 1-.707-1.707l2.119-2.121a.999.999 0 1 1 1.414 1.414l-2.119 2.121a.997.997 0 0 1-.707.293zM21.003 30.484a1 1 0 0 1-1-1c0-3.859-3.141-7-7-7s-7 3.141-7 7a1 1 0 1 1-2 0c0-4.963 4.037-9 9-9s9 4.037 9 9a1 1 0 0 1-1 1z" fill="#1f2125" opacity="1" data-original="#000000"></path><path d="M21.003 32.486h-16a1 1 0 1 1 0-2h16a1 1 0 1 1 0 2z" fill="#1f2125" opacity="1" data-original="#000000"></path><path d="M13.002 35.482c-2.206 0-4-1.794-4-4a1 1 0 1 1 2 0c0 1.103.897 2 2 2s2-.897 2-2a1 1 0 1 1 2 0c0 2.206-1.794 4-4 4zM50.997 22.484a1 1 0 0 1-1-1V6.494a1 1 0 1 1 2 0v14.99a1 1 0 0 1-1 1z" fill="#1f2125" opacity="1" data-original="#000000"></path><path d="M58.997 30.484a1 1 0 0 1-1-1c0-3.859-3.141-7-7-7s-7 3.141-7 7a1 1 0 1 1-2 0c0-4.963 4.037-9 9-9s9 4.037 9 9a1 1 0 0 1-1 1zM43.983 46.49a1 1 0 0 1-1-1c0-6.065-4.935-11-11-11s-11 4.935-11 11a1 1 0 1 1-2 0c0-7.168 5.832-13 13-13s13 5.832 13 13a1 1 0 0 1-1 1z" fill="#1f2125" opacity="1" data-original="#000000"></path><path d="M58.997 32.486h-16a1 1 0 1 1 0-2h16a1 1 0 1 1 0 2z" fill="#1f2125" opacity="1" data-original="#000000"></path><path d="M50.996 35.482c-2.206 0-4-1.794-4-4a1 1 0 1 1 2 0c0 1.103.897 2 2 2s2-.897 2-2a1 1 0 1 1 2 0c0 2.206-1.794 4-4 4zM5.003 32.486a1 1 0 0 1-1-1v-2.002a1 1 0 1 1 2 0v2.002a1 1 0 0 1-1 1zM21.003 32.486a1 1 0 0 1-1-1v-2.002a1 1 0 1 1 2 0v2.002a1 1 0 0 1-1 1zM42.997 32.486a1 1 0 0 1-1-1v-2.002a1 1 0 1 1 2 0v2.002a1 1 0 0 1-1 1zM58.997 32.486a1 1 0 0 1-1-1v-2.002a1 1 0 1 1 2 0v2.002a1 1 0 0 1-1 1z" fill="#1f2125" opacity="1" data-original="#000000"></path></g></svg>