<svg xmlns="http://www.w3.org/2000/svg" version="1.1" xmlns:xlink="http://www.w3.org/1999/xlink" width="512" height="512" x="0" y="0" viewBox="0 0 512.008 512.008" style="enable-background:new 0 0 512 512" xml:space="preserve" class=""><g><path d="m43.472 434.631 2.583 37.316c.406 5.867 5.331 10.462 11.211 10.462h18.926c5.88 0 10.805-4.596 11.211-10.462l2.562-37.009H321.21l2.562 37.009c.406 5.867 5.331 10.462 11.211 10.462h18.926c5.881 0 10.806-4.596 11.212-10.462l2.584-37.316c24.424-2.742 43.471-23.52 43.471-48.663v-85.011c0-23.216-18.888-42.104-42.104-42.104h-7.757c-3.472 0-6.78.718-9.783 2.013v-19.513c0-23.992-19.519-43.51-43.511-43.51H103.155c-23.992 0-43.51 19.519-43.51 43.51v19.513a24.648 24.648 0 0 0-9.783-2.013h-7.757C18.888 258.853 0 277.741 0 300.957v85.011c0 25.144 19.048 45.922 43.472 48.663zm29.21 32.779H60.777l-2.248-32.471h16.402zm265.813 0-2.248-32.471h16.401L350.4 467.41zM74.645 241.353c0-15.721 12.79-28.51 28.51-28.51h204.866c15.721 0 28.511 12.79 28.511 28.51v74.223h-13.469c.025-3.834 0 13.786 0-38.773 0-8.302-6.754-15.056-15.056-15.056H269.29c-8.302 0-15.056 6.754-15.056 15.056 0 52.798-.012 35.007 0 38.773h-14.232c.013-3.901 0 14.025 0-38.773 0-8.302-6.754-15.056-15.056-15.056H186.23c-8.302 0-15.056 6.754-15.056 15.056 0 52.798-.012 35.007 0 38.773h-14.232c.013-3.901 0 14.025 0-38.773 0-8.302-6.754-15.056-15.056-15.056h-38.718c-8.302 0-15.056 6.754-15.056 15.056 0 52.798-.012 35.007 0 38.773H74.645zm194.589 74.167.056-38.773 38.773.056-.036 38.772c-.102.025-6.053-.008-38.793-.055zm-83.06 0 .056-38.773 38.773.056-.036 38.772c-1.602 0-36.569-.052-38.793-.055zm-83.061 0 .056-38.773 38.773.056-.036 38.772c-.1.027-7.216-.009-38.793-.055zM15 300.957c0-14.945 12.159-27.104 27.104-27.104h7.757c5.395 0 9.783 4.389 9.783 9.783V316.6c-11.762 3.284-20.416 14.096-20.416 26.892v27.396c0 15.393 12.523 27.916 27.916 27.916h25.272a7.5 7.5 0 0 0 0-15H67.145c-7.122 0-12.916-5.794-12.916-12.916v-27.396c0-7.122 5.794-12.916 12.916-12.916h276.887c7.122 0 12.916 5.794 12.916 12.916v27.396c0 7.122-5.794 12.916-12.916 12.916H127.417a7.5 7.5 0 0 0 0 15h216.615c15.393 0 27.916-12.523 27.916-27.916v-27.396c0-12.796-8.654-23.608-20.416-26.892v-32.964c0-5.394 4.389-9.783 9.783-9.783h7.757c14.945 0 27.104 12.159 27.104 27.104v85.011c0 18.731-15.239 33.971-33.971 33.971H48.97C30.239 419.939 15 404.7 15 385.968z" fill="#1f2125" opacity="1" data-original="#000000"></path><path d="M505.395 454.406a41.954 41.954 0 0 0-31.227-25.012v-66.706c0-4.142-3.357-7.5-7.5-7.5s-7.5 3.358-7.5 7.5v66.037h-11.415V231.07h11.415v96.618c0 4.142 3.357 7.5 7.5 7.5s7.5-3.358 7.5-7.5V231.07h25.414c7.038 0 12.309-6.427 10.954-13.318l-17.18-87.33c-1.027-5.22-5.634-9.009-10.954-9.009h-21.441v-8.06c0-4.142-3.357-7.5-7.5-7.5s-7.5 3.358-7.5 7.5v8.06H424.52c-5.32 0-9.927 3.789-10.954 9.009l-17.181 87.33c-1.359 6.912 3.939 13.318 10.954 13.318h25.414v198.324a41.951 41.951 0 0 0-31.226 25.012l-5.791 13.709c-2.863 6.772 2.106 14.294 9.477 14.294h96.496c7.348 0 12.346-7.502 9.478-14.292zm-77.72-317.993h51.572l10.651 54.144h-72.876zm-13.603 69.144h78.777l2.068 10.513h-82.913zm-1.754 261.853 3.027-7.167a26.986 26.986 0 0 1 24.907-16.517h26.415a26.985 26.985 0 0 1 24.908 16.518l3.027 7.167h-82.284zM102.672 103.356a7.5 7.5 0 0 0-7.5 7.5v42.633c0 8.767 7.132 15.899 15.899 15.899h189.035c8.767 0 15.899-7.132 15.899-15.899V45.497c0-8.767-7.133-15.899-15.9-15.899H111.071c-8.767 0-15.899 7.132-15.899 15.899v30.358a7.5 7.5 0 0 0 15 0V45.497a.9.9 0 0 1 .899-.899h189.034a.9.9 0 0 1 .9.899v89.885l-46.18-46.179c-5.057-5.058-13.245-5.059-18.303 0l-30.935 30.935-30.935-30.935c-5.057-5.058-13.245-5.059-18.303 0l-46.179 46.179v-24.527a7.497 7.497 0 0 0-7.498-7.499zm143.003-2.091 53.124 53.124h-58.96l-23.644-23.644zm-80.173 0 53.124 53.124H112.379z" fill="#1f2125" opacity="1" data-original="#000000"></path><path d="M226.847 75.856c0-11.722-9.536-21.258-21.258-21.258s-21.258 9.536-21.258 21.258 9.537 21.258 21.258 21.258 21.258-9.537 21.258-21.258zm-27.516 0c0-3.451 2.808-6.258 6.258-6.258s6.258 2.807 6.258 6.258-2.807 6.258-6.258 6.258-6.258-2.808-6.258-6.258z" fill="#1f2125" opacity="1" data-original="#000000"></path></g></svg>