<svg xmlns="http://www.w3.org/2000/svg" version="1.1" xmlns:xlink="http://www.w3.org/1999/xlink" width="512" height="512" x="0" y="0" viewBox="0 0 128 128" style="enable-background:new 0 0 512 512" xml:space="preserve" class=""><g><path d="M10.799 80.097h18.196c1.105 0 1.984.907 1.984 2.013v43.878c0 1.105-.879 2.013-1.984 2.013H10.799c-1.106 0-1.984-.907-1.984-2.013V82.109c0-1.105.878-2.012 1.984-2.012zm57.935 0h48.439a2.02 2.02 0 0 1 2.012 2.013v43.878a2.021 2.021 0 0 1-2.012 2.013H68.734a2.022 2.022 0 0 1-2.014-2.013V82.109a2.022 2.022 0 0 1 2.014-2.012zm46.455 3.997H70.717v39.91h44.473v-39.91zm-88.206 0H12.811v39.91h14.172z" fill="#1f2125" opacity="1" data-original="#000000" class=""></path><path d="M79.986 88.544h25.934c1.105 0 2.098.453 2.834 1.162.029.057.086.113.113.17a3.929 3.929 0 0 1 1.049 2.665v11.167a4.014 4.014 0 0 1-1.162 2.807h-.027a3.92 3.92 0 0 1-2.807 1.19H79.986c-1.078 0-2.068-.453-2.807-1.19a3.876 3.876 0 0 1-1.189-2.807V92.541a4.014 4.014 0 0 1 3.996-3.997zm12.981 7.568c1.105 0 1.984.907 1.984 2.013s-.879 1.984-1.984 1.984-2.012-.879-2.012-1.984.906-2.013 2.012-2.013zm12.953-3.571H79.986v11.167h25.934zm2.947-2.665c.652.766.596 1.928-.113 2.665M9.977 15.498h52.039c1.814 0 3.486.737 4.678 1.956 1.189 1.19 1.955 2.834 1.955 4.676v35.432c0 1.842-.766 3.486-1.955 4.677a6.533 6.533 0 0 1-4.678 1.956H9.977c-1.814 0-3.458-.737-4.677-1.956a6.573 6.573 0 0 1-1.928-4.677V22.13c0-1.842.737-3.486 1.928-4.676 1.219-1.219 2.863-1.956 4.677-1.956zm54.675 35.488H7.37v6.576c0 .737.283 1.389.765 1.871.482.454 1.134.765 1.843.765h52.039c.737 0 1.389-.312 1.843-.765a2.639 2.639 0 0 0 .793-1.871v-6.576zM7.37 46.989h57.283V22.13c0-.736-.312-1.388-.793-1.87a2.612 2.612 0 0 0-1.843-.766H9.977c-.708 0-1.361.312-1.843.766a2.614 2.614 0 0 0-.765 1.87v24.859zm28.627 6.662c1.105 0 2.012.879 2.012 1.984s-.907 2.012-2.012 2.012-1.984-.907-1.984-2.012.878-1.984 1.984-1.984z" fill="#1f2125" opacity="1" data-original="#000000" class=""></path><path d="M29.25 60.198h13.492c1.105 0 2.013.879 2.013 1.984v11.254a2.021 2.021 0 0 1-2.013 2.013H29.25c-1.105 0-1.984-.907-1.984-2.013V62.183a1.973 1.973 0 0 1 1.984-1.985zm11.508 3.997h-9.495v7.257h9.495zM99.967 14.789c-.65-.878-.424-2.154.455-2.778.906-.652 2.154-.454 2.777.425l16.75 23.13c.652.878.455 2.126-.424 2.778a2.001 2.001 0 0 1-2.807-.454zm17.037 32.597a1.959 1.959 0 0 1 2.662-.907 1.987 1.987 0 0 1 .908 2.665l-12.471 25.171c-.51.992-1.701 1.418-2.693.907a1.983 1.983 0 0 1-.906-2.664z" fill="#1f2125" opacity="1" data-original="#000000" class=""></path><path d="M120.035 38.486a3.931 3.931 0 0 0-3.939 3.94 3.938 3.938 0 0 0 3.939 3.968 3.961 3.961 0 0 0 3.969-3.968 3.939 3.939 0 0 0-3.969-3.94zm0-3.997c4.395 0 7.965 3.571 7.965 7.937 0 4.393-3.57 7.965-7.965 7.965-4.365 0-7.936-3.572-7.936-7.965.001-4.365 3.544-7.937 7.936-7.937zM91.465 5.69l5.641-4.422a6.178 6.178 0 0 1 4.535-1.219c1.559.17 3.061.963 4.139 2.268l1.246 1.559a6.326 6.326 0 0 1 1.275 4.649c-.17 1.587-.992 3.118-2.352 4.195l-5.527 4.365c.141.765.141 1.559.057 2.324a8.532 8.532 0 0 1-3.146 5.669l-5.074 3.968a1.983 1.983 0 0 1-2.805-.312L77.576 13.627a1.993 1.993 0 0 1 .342-2.806l5.072-3.997a8.449 8.449 0 0 1 6.207-1.729 7.683 7.683 0 0 1 2.268.595zm4.139 9.978-3.912-4.96c-.68-.907-1.814-1.502-2.947-1.644a4.477 4.477 0 0 0-3.287.906l-3.516 2.75 9.41 11.961 3.516-2.75a4.569 4.569 0 0 0 1.643-2.976c.141-1.246-.171-2.295-.907-3.287zm3.853-11.196-4.676 3.713.057.057 3.91 4.96.057.085 4.678-3.713c.51-.368.795-.935.852-1.53a2.21 2.21 0 0 0-.455-1.701l-1.162-1.474a2.33 2.33 0 0 0-1.559-.851 2.298 2.298 0 0 0-1.702.454zM78.512 49.427h12.697c1.162 0 2.184.482 2.949 1.219a4.192 4.192 0 0 1 1.189 2.92v.34h1.984a5.982 5.982 0 0 1 5.98 5.981v3.912c0 3.289-2.693 5.981-5.98 5.981h-1.984v3.657c0 1.105-.879 2.013-1.984 2.013H76.387a2.022 2.022 0 0 1-2.014-2.013V53.566c0-2.268 1.871-4.139 4.139-4.139zm16.836 8.475v7.88h1.984a1.99 1.99 0 0 0 1.984-1.984v-3.912a1.972 1.972 0 0 0-1.984-1.984zm-4.139-4.478H78.512c-.084 0-.141.057-.141.142v17.886h12.98V53.566c.001-.057-.056-.142-.142-.142z" fill="#1f2125" opacity="1" data-original="#000000" class=""></path><path d="M3.997 71.452h120.007c1.076 0 2.098.453 2.807 1.162l.141.142a4 4 0 0 1 1.049 2.693v4.647a3.99 3.99 0 0 1-1.189 2.835 3.951 3.951 0 0 1-2.807 1.162H3.997c-1.077 0-2.097-.426-2.806-1.162A3.935 3.935 0 0 1 0 80.097V75.45a3.99 3.99 0 0 1 1.19-2.835 3.959 3.959 0 0 1 2.807-1.163zm120.007 3.997H3.997v4.647h120.007zm2.947-2.693a2.004 2.004 0 0 1-.141 2.693" fill="#1f2125" opacity="1" data-original="#000000" class=""></path></g></svg>