<svg xmlns="http://www.w3.org/2000/svg" version="1.1" xmlns:xlink="http://www.w3.org/1999/xlink" width="512" height="512" x="0" y="0" viewBox="0 0 512 512" style="enable-background:new 0 0 512 512" xml:space="preserve" class=""><g><path d="M482.811 337.041v-27.529c0-25.671-20.885-46.555-46.555-46.555H257.958a7.515 7.515 0 1 0 0 15.03h178.298c17.384 0 31.526 14.142 31.526 31.526v27.529c-16.647 3.477-29.19 18.264-29.19 35.927v27.909H198.485v-27.909c0-17.664-12.543-32.45-29.189-35.927v-27.529c0-17.384 14.143-31.526 31.526-31.526H227.9a7.515 7.515 0 1 0 0-15.03h-27.078c-25.671 0-46.555 20.885-46.555 46.555v27.529c-16.646 3.477-29.19 18.264-29.19 35.927v107.027a7.514 7.514 0 0 0 7.515 7.515h231.782c4.151 0 7.515-3.364 7.515-7.515s-3.364-7.515-7.515-7.515H198.485v-56.574h240.107v56.574h-44.16c-4.151 0-7.515 3.364-7.515 7.515s3.364 7.515 7.515 7.515h110.054a7.514 7.514 0 0 0 7.515-7.515V372.969c-.001-17.664-12.544-32.45-29.19-35.928zm-342.705 35.928c0-11.951 9.723-21.674 21.675-21.674s21.675 9.723 21.675 21.674v99.512h-43.35zm356.865 99.512h-43.35v-99.512c0-11.951 9.723-21.674 21.675-21.674 11.951 0 21.674 9.723 21.674 21.674v99.512zM191.48 209.331c.367 3.788 3.668 6.781 7.478 6.781h239.161c4.087 0 7.515-3.427 7.515-7.515V32.004c0-4.088-3.427-7.515-7.515-7.515h-43.687c-4.151 0-7.515 3.364-7.515 7.515s3.364 7.515 7.515 7.515h25.545l-13.912 13.912H231.011l-13.912-13.912h147.273c4.151 0 7.515-3.364 7.515-7.515s-3.364-7.515-7.515-7.515H198.957c-4.091 0-7.515 3.432-7.515 7.515v176.593c.001.242.014.493.038.734zm25.619-8.248 13.912-13.913h175.053l13.912 13.913zm184.564-28.943h-68.276l-12.527-13.914 40.626-45.126c2.415-2.685 6.711-2.646 9.117.026l31.06 34.168zm-88.5 0h-77.749v-5.481l32.887-36.53c1.86-2.066 5.181-2.067 7.04 0zM430.604 50.147v140.307l-13.912-13.912V64.059zm-28.941 74.804-19.914-21.907c-8.275-9.191-23.158-9.191-31.433 0l-39.568 43.95-24.237-26.921a19.793 19.793 0 0 0-14.689-6.541c-5.557 0-10.973 2.412-14.691 6.541l-21.717 24.123V68.46h166.249zM220.384 64.059v112.484l-13.912 13.912V50.147z" fill="#1f2125" opacity="1" data-original="#000000" class=""></path><path d="M84.693 445.403H77.32V185.324h19.302v85.027a7.515 7.515 0 1 0 15.03 0v-85.027h20.447c4.749 0 8.385-4.557 7.326-9.19L113.073 60.867a7.515 7.515 0 0 0-7.326-5.84H33.863a7.515 7.515 0 0 0-7.326 5.84L.185 176.134c-1.059 4.633 2.577 9.19 7.326 9.19h54.78v260.078h-7.373c-18.453 0-33.465 15.012-33.465 33.464v1.129a7.515 7.515 0 0 0 7.515 7.515h81.675a7.515 7.515 0 0 0 7.515-7.515v-1.129c-.001-18.451-15.013-33.463-33.465-33.463zM39.854 70.057h59.903l22.916 100.238H16.937zm-2.232 402.424c2.603-7.027 9.373-12.049 17.295-12.049h29.775c7.922 0 14.692 5.021 17.295 12.049zM310.748 119.104c11.702 0 21.221-9.52 21.221-21.221 0-11.702-9.52-21.221-21.221-21.221-11.702 0-21.221 9.52-21.221 21.221s9.519 21.221 21.221 21.221zm0-27.413c3.414 0 6.192 2.778 6.192 6.192s-2.778 6.192-6.192 6.192-6.192-2.778-6.192-6.192a6.199 6.199 0 0 1 6.192-6.192z" fill="#1f2125" opacity="1" data-original="#000000" class=""></path></g></svg>