<svg xmlns="http://www.w3.org/2000/svg" version="1.1" xmlns:xlink="http://www.w3.org/1999/xlink" width="512" height="512" x="0" y="0" viewBox="0 0 128 128" style="enable-background:new 0 0 512 512" xml:space="preserve" class=""><g><path d="M53 120.508a1.5 1.5 0 0 1-1.5-1.5V9.019a1.5 1.5 0 1 1 3 0v109.989a1.5 1.5 0 0 1-1.5 1.5Z" fill="#1f2125" opacity="1" data-original="#000000" class=""></path><path d="M117.9 127.008H10.1a6.508 6.508 0 0 1-6.5-6.5V7.492a6.508 6.508 0 0 1 6.5-6.5h107.8a6.508 6.508 0 0 1 6.5 6.5v113.016a6.508 6.508 0 0 1-6.5 6.5ZM10.1 3.992a3.505 3.505 0 0 0-3.5 3.5v113.016a3.5 3.5 0 0 0 3.5 3.5h107.8a3.5 3.5 0 0 0 3.5-3.5V7.492a3.505 3.505 0 0 0-3.5-3.5Z" fill="#1f2125" opacity="1" data-original="#000000" class=""></path><path d="M115.589 7.506H12.411a2.572 2.572 0 0 0-2.57 2.569v107.85a2.572 2.572 0 0 0 2.57 2.569h40.454c.045 0 .089.014.135.014s.09-.01.135-.014h62.454a2.572 2.572 0 0 0 2.57-2.569V10.075a2.572 2.572 0 0 0-2.57-2.569ZM51.5 117.494H12.841V88.167H51.5Zm0-32.327H12.841V44.833H51.5Zm0-43.334H12.841V10.506H51.5Zm63.659 75.661H54.5V29.5h60.659Zm0-90.994H54.5V10.506h60.659Z" fill="#1f2125" opacity="1" data-original="#000000" class=""></path><path d="M48.167 33.458a4.8 4.8 0 0 0-4.792-4.791H20.958a4.778 4.778 0 0 0-3.464 8.083 4.778 4.778 0 0 0 3.464 8.083h22.417a4.778 4.778 0 0 0 3.465-8.083 4.766 4.766 0 0 0 1.327-3.292Zm-27.209-1.791h22.417a1.792 1.792 0 1 1 0 3.583H20.958a1.792 1.792 0 0 1 0-3.583Zm22.417 10.166H20.958a1.792 1.792 0 0 1 0-3.583h22.417a1.792 1.792 0 1 1 0 3.583ZM47.135 73.5a4.778 4.778 0 0 0-3.464-8.083H21.254a4.778 4.778 0 0 0-3.465 8.083 4.746 4.746 0 0 0 0 6.583 4.779 4.779 0 0 0 3.465 8.084h22.417a4.779 4.779 0 0 0 3.464-8.084 4.746 4.746 0 0 0 0-6.583Zm-27.673 3.292A1.794 1.794 0 0 1 21.254 75h22.417a1.792 1.792 0 0 1 0 3.583H21.254a1.794 1.794 0 0 1-1.792-1.791Zm1.792-8.375h22.417a1.792 1.792 0 0 1 0 3.583H21.254a1.792 1.792 0 1 1 0-3.583Zm22.417 16.75H21.254a1.792 1.792 0 0 1 0-3.584h22.417a1.792 1.792 0 0 1 0 3.584ZM112.934 58.237c-.8-3.094-2.945-10.6-5.49-13.411a16.676 16.676 0 0 0-5.436-4.164A3.479 3.479 0 0 0 99 40.7c-1.329-1.065-2.8-2.288-3.834-3.234a16.923 16.923 0 0 0 1.2-2.008c2.057-4.158 1.695-7.719-.946-9.294a5.061 5.061 0 0 0-4.5-.344 4.584 4.584 0 0 0-2.72 3.12 1.5 1.5 0 1 0 2.908.739 1.6 1.6 0 0 1 .961-1.09 2.044 2.044 0 0 1 1.817.149c1.4.836.764 3.424-.207 5.387a16.041 16.041 0 0 1-1.67 2.6 33.748 33.748 0 0 1-3.729 3.992 3.491 3.491 0 0 0-2.677.235c-.229.123-.5.261-.8.413-.489.248-1.077.549-1.694.891a3.816 3.816 0 0 0-3.329-1.926h-1.562c-1.969-1.324-3.523-2.438-4.513-3.233a11.532 11.532 0 0 0 1.364-2.04c2.111-4.178 1.809-7.5-.837-9.112a5.043 5.043 0 0 0-4.819-.077 4.873 4.873 0 0 0-2.713 3.866 1.5 1.5 0 0 0 2.987.291 1.864 1.864 0 0 1 1.078-1.476 2.045 2.045 0 0 1 1.917-.038c1.611.984.336 3.959-.289 5.2a11.146 11.146 0 0 1-1.885 2.489 38.5 38.5 0 0 1-4.775 4.129H64.39a3.851 3.851 0 0 0-3.627 2.557 59.845 59.845 0 0 0-3.139 22.725c.239 3.5.557 12.236.7 33.988v.27a2.5 2.5 0 0 0 2.033 2.454 18.8 18.8 0 0 0 3.366.264 33.726 33.726 0 0 0 4.538-.325 2.5 2.5 0 0 0 2.108-2.271l1.3-15.847 1.161 15.918a2.5 2.5 0 0 0 1.955 2.275 27.339 27.339 0 0 0 7.951-.089 2.505 2.505 0 0 0 2.209-2.4l.019-.567c.087-2.725.287-9 .531-15.522 2.14.173 4.6.262 7.289.262 4.243 0 9.021-.213 13.853-.637A1.5 1.5 0 0 0 108 81.753l-1.666-18.22a.906.906 0 0 1 .706-.972 17.52 17.52 0 0 0 4.58-1.495 2.467 2.467 0 0 0 1.314-2.829Zm-19.615-18.4c.934.842 2.06 1.783 2.991 2.541a6.456 6.456 0 0 1-5.491.062 38.765 38.765 0 0 0 2.5-2.603Zm-21.665-.543c.379.31.823.654 1.337 1.036h-2.478c.401-.351.787-.697 1.141-1.036Zm10.315 59.892v.13a26.414 26.414 0 0 1-6.166.157l-2.467-33.766a1.387 1.387 0 0 0 .008-.2l-.319-4.874a1.482 1.482 0 0 0-.188-.633l-2.243-3.976a1.539 1.539 0 0 0-2.074-.584 1.486 1.486 0 0 0-.594 2.039L70 61.158l.241 3.691-2.825 34.5a24.777 24.777 0 0 1-6.091.092c-.148-21.728-.468-30.5-.711-34.036a56.755 56.755 0 0 1 2.977-21.524.831.831 0 0 1 .8-.552H79.78a.843.843 0 0 1 .8.574l.3.99a63.655 63.655 0 0 1 2.486 21.419c-.229 2.895-.485 7.9-.8 15.75-.276 7.08-.503 14.176-.597 17.124Zm24.492-39.569a3.891 3.891 0 0 0-3.111 4.19l1.528 16.714a127.908 127.908 0 0 1-19.261.24c.29-7 .526-11.534.738-14.213a65.883 65.883 0 0 0-2.291-21.388c.729-.428 1.463-.8 2.089-1.12.326-.165.619-.314.863-.445a.539.539 0 0 1 .575.076.961.961 0 0 1 .117.107c2.847 3.147 8.576 3 12.5-.324a.484.484 0 0 1 .527-.072 13.633 13.633 0 0 1 4.48 3.456c1.662 1.838 3.492 7.176 4.7 11.72a14.662 14.662 0 0 1-3.454 1.059ZM31.2 116.661a34.431 34.431 0 0 1-.276-7.226 9.81 9.81 0 0 0-.068-1.428c-.341-3.122-2.2-5.392-4.628-5.651a4.612 4.612 0 0 0-4.434 2.027 7.689 7.689 0 0 0-1.367 4.186c-.027.4-.041.815-.056 1.243a19.158 19.158 0 0 1-.266 3.029c-.46 1.921-.844 3.426-1.141 4.472a2.5 2.5 0 0 0 2.406 3.177h7.493a2.505 2.505 0 0 0 2.482-2.813c-.045-.366-.099-.691-.145-1.016Zm-4.116.829a18.29 18.29 0 0 1 .355-3.59 1.5 1.5 0 0 0-2.932-.64 21.333 21.333 0 0 0-.424 4.23h-2.06c.278-1.025.614-2.359 1.009-4.013a21.875 21.875 0 0 0 .334-3.564c.013-.393.026-.773.05-1.134a4.748 4.748 0 0 1 .795-2.624 1.656 1.656 0 0 1 1.711-.814c.79.084 1.736 1.056 1.95 3.019a6.721 6.721 0 0 1 .049 1 37.038 37.038 0 0 0 .309 7.756l.058.373ZM45.415 117.314c-.3-1.047-.681-2.552-1.127-4.41a19.007 19.007 0 0 1-.28-3.092c-.015-.428-.029-.841-.057-1.251a7.676 7.676 0 0 0-1.365-4.177 4.606 4.606 0 0 0-4.449-2.026c-2.419.257-4.273 2.527-4.611 5.621a9.856 9.856 0 0 0-.07 1.46 34.447 34.447 0 0 1-.277 7.222c-.05.325-.1.65-.145 1.016a2.505 2.505 0 0 0 2.482 2.813h7.493a2.5 2.5 0 0 0 2.406-3.176Zm-5.119.176a21.333 21.333 0 0 0-.424-4.23 1.5 1.5 0 0 0-2.932.64 18.29 18.29 0 0 1 .355 3.59h-1.208l.058-.373a37.049 37.049 0 0 0 .31-7.751 6.765 6.765 0 0 1 .051-1.033c.211-1.936 1.157-2.908 1.932-2.99a1.653 1.653 0 0 1 1.727.813 4.734 4.734 0 0 1 .793 2.615c.025.369.038.749.051 1.142a21.911 21.911 0 0 0 .347 3.627c.385 1.6.718 2.927 1 3.95Z" fill="#1f2125" opacity="1" data-original="#000000" class=""></path></g></svg>