<svg xmlns="http://www.w3.org/2000/svg" version="1.1" xmlns:xlink="http://www.w3.org/1999/xlink" width="512" height="512" x="0" y="0" viewBox="0 0 512 512" style="enable-background:new 0 0 512 512" xml:space="preserve" class=""><g><path d="M192.126 125.786h38.555a29.734 29.734 0 0 0-4.609 15.928c0 16.503 13.426 29.929 29.928 29.929s29.928-13.426 29.928-29.929a29.74 29.74 0 0 0-4.609-15.928h38.555a7 7 0 0 0 7-7c0-36.717-28.068-66.997-63.874-70.524V16a7 7 0 1 0-14 0v32.262c-35.806 3.527-63.874 33.808-63.874 70.524a7 7 0 0 0 7 7zm79.802 15.928c0 8.783-7.145 15.929-15.928 15.929s-15.928-7.146-15.928-15.929c0-8.782 7.146-15.928 15.928-15.928s15.928 7.146 15.928 15.928zM256 61.913c28.991 0 52.985 21.804 56.445 49.873h-112.89c3.46-28.069 27.455-49.873 56.445-49.873zm93.3 281.677a7 7 0 0 0 7-7v-16.132h67.794a7 7 0 0 0 7-7v-32.386a7 7 0 0 0-7-7H87.907a7 7 0 0 0-7 7v32.386a7 7 0 0 0 7 7h67.794v16.132a7 7 0 0 0 7 7h65.513v119.396h-65.513a7 7 0 0 0-7 7V496a7 7 0 0 0 7 7H349.3a7 7 0 0 0 7-7v-26.015a7 7 0 0 0-7-7h-65.513V343.59zM94.907 288.072h322.187v18.386H94.907zm74.794 32.386H342.3v9.132H169.701zM342.3 489H169.701v-12.015H342.3zm-72.513-26.015h-27.574V343.59h27.574zm-131.988-92.406H23v-61.06h19.564a7 7 0 0 0 7-7V224.95a7 7 0 0 0-7-7H16a7 7 0 0 0-7 7V496h14v-84.856h89.141V496a7 7 0 1 0 14 0V384.579h11.657a7 7 0 0 0 .001-14zM23 231.95h12.564v63.569H23zm89.142 165.194H23V384.58h89.141v12.564zM496 217.95h-26.564a7 7 0 0 0-7 7v77.569a7 7 0 0 0 7 7H489v61.06H374.201a7 7 0 1 0 0 14h11.657V496a7 7 0 1 0 14 0v-84.856H489V496a7 7 0 1 0 14 0V224.95a7 7 0 0 0-7-7zm-19.565 77.57v-63.57H489v63.569h-12.565zm-76.577 101.624V384.58H489v12.564z" fill="#1f2125" opacity="1" data-original="#000000" class=""></path></g></svg>